# xmcd
#
# Track frame offsets:
#	150
#	15090
#	29637
#	44453
#	59423
#	74544
#	86580
#	100703
#	115764
#	131346
#
# Disc length: 1928 seconds
#
# Revision: 0
# Processed by: cddbd v1.5.2PL0 Copyright (c) Steve Scherf et al.
# Submitted via: EasyCDDAExtractor 16.0.6.1
#
DISCID=7d07860a
DTITLE=Συλλογικός δίσκος - Λαϊκό τραγούδι 1954-1967, 1958-2
DYEAR=2008
DGENRE=Λαϊκή
TTITLE0=Γαβαλάς Πάνος - 15 μέρες και 15 νύχτες [Μανώλης Χιώτης]
TTITLE1=Καζαντζίδης Στέλιος-Μαρινέλλα - Είσαι η ζωή μου [Στέλιος Καζαντζίδης]
TTITLE2=Αγγελόπουλος Μανώλης - Μπεγλέρι και μαχαίρι [Δημήτρης Ευσταθίου]
TTITLE3=Γκρέϋ Καίτη - Το παιδί μου απόψε πίνει [Χρήστος Κολοκοτρώνης-Άκης Πάνο
TTITLE3=υ]
TTITLE4=Περπινιάδης Βαγγέλης - Σαν το κεράκι έλιωσα [Βαγγέλης Περπινιάδης]
TTITLE5=Καζαντζίδης Στέλιος - Του κατάδικου η μάννα [Θεόδωρος Δερβενιώτης-Ευτ.
TTITLE5=Παπαγιαννοπούλου]
TTITLE6=Πάνου Πόλυ-Κυριαζής Γιάννης - Την αγάπη μας δεν σκέφτηκες [Ιωάννης Πολ
TTITLE6=ίτης-Αναστάσιος Δήμογλου]
TTITLE7=Παγιουμτζής Στράτος-Γκίκα Β.-Τσαγκάρης Λ. - Θα χτίσω στην Ελλάδα καινο
TTITLE7=ύργιο Χόλιγουντ [Λευτέρης Τσαγκάρης]
TTITLE8=Γκρέϋ Καίτη - Χτύπα με κατάστηθα [Μπάμπης Μπακάλης]
TTITLE9=Καζαντζίδης Στέλιος - Θα πάω σ' άλλες πολιτείες [Απόστολος Καλδάρας-Ευ
TTITLE9=τ. Παπαγιαννοπούλου]
EXTD=
EXTT0=
EXTT1=
EXTT2=
EXTT3=
EXTT4=
EXTT5=
EXTT6=
EXTT7=
EXTT8=
EXTT9=
PLAYORDER=
